<control>


default_path=Keys\Upright Piano\


<global>




ampeg_attack=0.001


ampeg_release=0.6


ampeg_dynamic=1




volume=0




<group> //Begin Group 1



group_label=gr_1






<region>
sample=Player_dyn1_rr1_000.wav
lokey=21
hikey=22
pitch_keycenter=21
lovel=0
hivel=60
volume=23


<region>
sample=Player_dyn1_rr1_002.wav
lokey=23
hikey=26
pitch_keycenter=25
lovel=0
hivel=60
volume=23


<region>
sample=Player_dyn1_rr1_004.wav
lokey=27
hikey=30
pitch_keycenter=29
lovel=0
hivel=60
volume=23


<region>
sample=Player_dyn1_rr1_006.wav
lokey=31
hikey=34
pitch_keycenter=33
lovel=0
hivel=60
volume=23


<region>
sample=Player_dyn1_rr1_008.wav
lokey=35
hikey=38
pitch_keycenter=37
lovel=0
hivel=60
volume=23


<region>
sample=Player_dyn1_rr1_010.wav
lokey=39
hikey=42
pitch_keycenter=41
lovel=0
hivel=60
volume=23


<region>
sample=Player_dyn1_rr1_012.wav
lokey=43
hikey=46
pitch_keycenter=45
lovel=0
hivel=60
volume=23


<region>
sample=Player_dyn1_rr1_014.wav
lokey=47
hikey=50
pitch_keycenter=49
lovel=0
hivel=60
volume=23


<region>
sample=Player_dyn1_rr1_016.wav
lokey=51
hikey=54
pitch_keycenter=53
lovel=0
hivel=60
volume=23


<region>
sample=Player_dyn1_rr1_018.wav
lokey=55
hikey=58
pitch_keycenter=57
lovel=0
hivel=60
volume=23


<region>
sample=Player_dyn1_rr1_020.wav
lokey=59
hikey=62
pitch_keycenter=61
lovel=0
hivel=60
volume=23


<region>
sample=Player_dyn1_rr1_022.wav
lokey=63
hikey=66
pitch_keycenter=65
lovel=0
hivel=60
volume=23


<region>
sample=Player_dyn1_rr1_024.wav
lokey=67
hikey=70
pitch_keycenter=69
lovel=0
hivel=60
volume=23


<region>
sample=Player_dyn1_rr1_026.wav
lokey=71
hikey=74
pitch_keycenter=73
lovel=0
hivel=60
volume=23


<region>
sample=Player_dyn1_rr1_028.wav
lokey=75
hikey=78
pitch_keycenter=77
lovel=0
hivel=60
volume=23


<region>
sample=Player_dyn1_rr1_030.wav
lokey=79
hikey=82
pitch_keycenter=81
lovel=0
hivel=60
volume=23


<region>
sample=Player_dyn1_rr1_032.wav
lokey=83
hikey=86
pitch_keycenter=85
lovel=0
hivel=60
volume=23


<region>
sample=Player_dyn1_rr1_034.wav
lokey=87
hikey=90
pitch_keycenter=89
lovel=0
hivel=60
volume=23


<region>
sample=Player_dyn1_rr1_036.wav
lokey=91
hikey=94
pitch_keycenter=93
lovel=0
hivel=60
volume=23


<region>
sample=Player_dyn1_rr1_038.wav
lokey=95
hikey=98
pitch_keycenter=97
lovel=0
hivel=60
volume=23


<region>
sample=Player_dyn1_rr1_040.wav
lokey=99
hikey=102
pitch_keycenter=101
lovel=0
hivel=60
volume=23


<region>
sample=Player_dyn1_rr1_042.wav
lokey=103
hikey=106
pitch_keycenter=105
lovel=0
hivel=60
volume=23


<region>
sample=Player_dyn1_rr1_044.wav
lokey=107
hikey=108
pitch_keycenter=108
lovel=0
hivel=60
volume=23


<region>
sample=Player_dyn2_rr1_000.wav
lokey=21
hikey=22
pitch_keycenter=21
lovel=61
hivel=110
volume=10


<region>
sample=Player_dyn2_rr1_002.wav
lokey=23
hikey=26
pitch_keycenter=25
lovel=61
hivel=110
volume=10


<region>
sample=Player_dyn2_rr1_004.wav
lokey=27
hikey=30
pitch_keycenter=29
lovel=61
hivel=110
volume=10


<region>
sample=Player_dyn2_rr1_006.wav
lokey=31
hikey=34
pitch_keycenter=33
lovel=61
hivel=110
volume=10


<region>
sample=Player_dyn2_rr1_008.wav
lokey=35
hikey=38
pitch_keycenter=37
lovel=61
hivel=110
volume=10


<region>
sample=Player_dyn2_rr1_010.wav
lokey=39
hikey=42
pitch_keycenter=41
lovel=61
hivel=110
volume=10


<region>
sample=Player_dyn2_rr1_012.wav
lokey=43
hikey=46
pitch_keycenter=45
lovel=61
hivel=110
volume=10


<region>
sample=Player_dyn2_rr1_014.wav
lokey=47
hikey=50
pitch_keycenter=49
lovel=61
hivel=110
volume=10


<region>
sample=Player_dyn2_rr1_016.wav
lokey=51
hikey=54
pitch_keycenter=53
lovel=61
hivel=110
volume=10


<region>
sample=Player_dyn2_rr1_018.wav
lokey=55
hikey=58
pitch_keycenter=57
lovel=61
hivel=110
volume=10


<region>
sample=Player_dyn2_rr1_020.wav
lokey=59
hikey=62
pitch_keycenter=61
lovel=61
hivel=110
volume=10


<region>
sample=Player_dyn2_rr1_022.wav
lokey=63
hikey=66
pitch_keycenter=65
lovel=61
hivel=110
volume=10


<region>
sample=Player_dyn2_rr1_024.wav
lokey=67
hikey=70
pitch_keycenter=69
lovel=61
hivel=110
volume=10


<region>
sample=Player_dyn2_rr1_026.wav
lokey=71
hikey=74
pitch_keycenter=73
lovel=61
hivel=110
volume=10


<region>
sample=Player_dyn2_rr1_028.wav
lokey=75
hikey=78
pitch_keycenter=77
lovel=61
hivel=110
volume=10


<region>
sample=Player_dyn2_rr1_030.wav
lokey=79
hikey=82
pitch_keycenter=81
lovel=61
hivel=110
volume=10


<region>
sample=Player_dyn2_rr1_032.wav
lokey=83
hikey=86
pitch_keycenter=85
lovel=61
hivel=110
volume=10


<region>
sample=Player_dyn2_rr1_034.wav
lokey=87
hikey=90
pitch_keycenter=89
lovel=61
hivel=110
volume=10


<region>
sample=Player_dyn2_rr1_036.wav
lokey=91
hikey=94
pitch_keycenter=93
lovel=61
hivel=110
volume=10


<region>
sample=Player_dyn2_rr1_038.wav
lokey=95
hikey=98
pitch_keycenter=97
lovel=61
hivel=110
volume=10


<region>
sample=Player_dyn2_rr1_040.wav
lokey=99
hikey=102
pitch_keycenter=101
lovel=61
hivel=110
volume=10


<region>
sample=Player_dyn2_rr1_042.wav
lokey=103
hikey=106
pitch_keycenter=105
lovel=61
hivel=110
volume=10


<region>
sample=Player_dyn2_rr1_044.wav
lokey=107
hikey=108
pitch_keycenter=108
lovel=61
hivel=110
volume=10


<region>
sample=Player_dyn3_rr1_000.wav
lokey=21
hikey=22
pitch_keycenter=21
lovel=111
hivel=127
volume=2


<region>
sample=Player_dyn3_rr1_002.wav
lokey=23
hikey=26
pitch_keycenter=25
lovel=111
hivel=127
volume=2


<region>
sample=Player_dyn3_rr1_004.wav
lokey=27
hikey=30
pitch_keycenter=29
lovel=111
hivel=127
volume=2


<region>
sample=Player_dyn3_rr1_006.wav
lokey=31
hikey=34
pitch_keycenter=33
lovel=111
hivel=127
volume=2


<region>
sample=Player_dyn3_rr1_008.wav
lokey=35
hikey=38
pitch_keycenter=37
lovel=111
hivel=127
volume=2


<region>
sample=Player_dyn3_rr1_010.wav
lokey=39
hikey=42
pitch_keycenter=41
lovel=111
hivel=127
volume=2


<region>
sample=Player_dyn3_rr1_012.wav
lokey=43
hikey=46
pitch_keycenter=45
lovel=111
hivel=127
volume=2


<region>
sample=Player_dyn3_rr1_014.wav
lokey=47
hikey=50
pitch_keycenter=49
lovel=111
hivel=127
volume=2


<region>
sample=Player_dyn3_rr1_016.wav
lokey=51
hikey=54
pitch_keycenter=53
lovel=111
hivel=127
volume=2


<region>
sample=Player_dyn3_rr1_018.wav
lokey=55
hikey=58
pitch_keycenter=57
lovel=111
hivel=127
volume=2


<region>
sample=Player_dyn3_rr1_020.wav
lokey=59
hikey=62
pitch_keycenter=61
lovel=111
hivel=127
volume=2


<region>
sample=Player_dyn3_rr1_022.wav
lokey=63
hikey=66
pitch_keycenter=65
lovel=111
hivel=127
volume=2


<region>
sample=Player_dyn3_rr1_024.wav
lokey=67
hikey=70
pitch_keycenter=69
lovel=111
hivel=127
volume=2


<region>
sample=Player_dyn3_rr1_026.wav
lokey=71
hikey=74
pitch_keycenter=73
lovel=111
hivel=127
volume=2


<region>
sample=Player_dyn3_rr1_028.wav
lokey=75
hikey=78
pitch_keycenter=77
lovel=111
hivel=127
volume=2


<region>
sample=Player_dyn3_rr1_030.wav
lokey=79
hikey=82
pitch_keycenter=81
lovel=111
hivel=127
volume=2


<region>
sample=Player_dyn3_rr1_032.wav
lokey=83
hikey=86
pitch_keycenter=85
lovel=111
hivel=127
volume=2


<region>
sample=Player_dyn3_rr1_034.wav
lokey=87
hikey=90
pitch_keycenter=89
lovel=111
hivel=127
volume=2


<region>
sample=Player_dyn3_rr1_036.wav
lokey=91
hikey=94
pitch_keycenter=93
lovel=111
hivel=127
volume=2


<region>
sample=Player_dyn3_rr1_038.wav
lokey=95
hikey=98
pitch_keycenter=97
lovel=111
hivel=127
volume=2


<region>
sample=Player_dyn3_rr1_040.wav
lokey=99
hikey=102
pitch_keycenter=101
lovel=111
hivel=127
volume=2


<region>
sample=Player_dyn3_rr1_042.wav
lokey=103
hikey=106
pitch_keycenter=105
lovel=111
hivel=127
volume=2


<region>
sample=Player_dyn3_rr1_044.wav
lokey=107
hikey=108
pitch_keycenter=108
lovel=111
hivel=127
volume=2


